<svg id="Layer_1" data-name="Layer 1" xmlns="http://www.w3.org/2000/svg" viewBox="0 0 24 24"><defs><style>.cls-1{font-size:10.48px;font-family:BebasNeue-Regular, Bebas Neue;}.cls-2{fill:#666;}.cls-3{letter-spacing:0em;}</style></defs><path d="M19.68,11.92a1.44,1.44,0,0,1,.38-.32.43.43,0,0,0,.3-.4c.09-.58.2-1.15.31-1.71a1.64,1.64,0,0,1-.3-.15c-.39-.29-.78-.58-1.15-.89a.54.54,0,0,0-.54-.11,5.41,5.41,0,0,1-2.46.28c.1-.11.16-.22.25-.26.61-.27,1.22-.51,1.9-.79-.15-.14-.25-.32-.33-.31a1.93,1.93,0,0,0-.7.23c-.25.16-.43.48-.83.26.16-.6-.11-1.27.31-1.84l0-.07c0-.16,0-.4.09-.47s.34,0,.51,0c.63-.09,1.25-.2,1.88-.31a1,1,0,0,1,.92.29c.48.43,1,.83,1.44,1.28a3,3,0,0,1,.57.76,5.33,5.33,0,0,1,.39,1,4,4,0,0,1,.12.84A1.36,1.36,0,0,1,22,10.53a1.6,1.6,0,0,0-.84,1.28c0,.06,0,.12-.07.19H19.73Z"/><path d="M21.87,12c.22-.41.35-.77-.12-1.09l.78-.56c.13.32.41.68.32.89A1,1,0,0,1,21.87,12Z"/><path d="M19.69,9c-.59.09-.55.46-.53.83l-.11,0a1.32,1.32,0,0,1-.23-.35c-.12-.37-.32-.77.26-1Z"/><text class="cls-1" transform="translate(0 12.02)">BEAR<tspan class="cls-2"><tspan x="0" y="7.6">GRE</tspan><tspan class="cls-3" x="12.13" y="7.6">A</tspan><tspan x="16.3" y="7.6">SE</tspan></tspan></text></svg>