<svg id="Layer_1" data-name="Layer 1" xmlns="http://www.w3.org/2000/svg" viewBox="0 0 1080 837.06"><defs><style>.cls-1{font-size:471.62px;font-family:BebasNeue-Regular, Bebas Neue;}.cls-2{fill:#666;}.cls-3{letter-spacing:0em;}</style></defs><path d="M885.38,396.32c5.69-5,10.62-12,17.25-14.52,9.44-3.53,12.1-9.12,13.54-18.19,4.1-25.83,9.24-51.49,13.93-76.94-2.69-1.31-8.62-3.22-13.38-6.73-17.59-13-35.18-26-52-40-7.78-6.49-15-7.69-24.17-4.74-34.85,11.14-70.3,17.88-110.54,12.26,4.31-4.75,6.86-9.92,10.9-11.66,27.48-11.84,55.27-23,85.8-35.47-6.73-6.52-11.41-14.3-14.87-13.79-10.8,1.58-22.28,4.51-31.38,10.26-11.52,7.27-19.73,21.32-37.56,11.49,7.25-26.78-4.82-57.14,13.76-82.86a7.2,7.2,0,0,0,1.35-2.8c1.3-7.4,0-18.31,4.34-21.34,5.19-3.65,15.24.49,22.91-.66,28.25-4.24,56.42-9.1,84.57-14,16.16-2.85,29.31,2,41.34,12.9,21.45,19.49,44.16,37.62,65,57.67a133.33,133.33,0,0,1,25.38,34.12c7.62,14.63,13.09,30.62,17.56,46.56a151.79,151.79,0,0,1,5.25,37.6c.55,26.24-11.5,45.59-34.76,58.22C967,346,954.88,365.58,951.62,391c-.38,3-2,5.77-3.12,8.69H887.9Z" transform="translate(0 0.1)"/><path d="M984.37,400.21c9.74-18.29,15.56-34.81-5.65-49L1014,325.91c5.63,14.39,18.07,30.47,14.21,39.87C1021.8,381.52,1011.22,401,984.37,400.21Z" transform="translate(0 0.1)"/><path d="M885.89,266.07c-26.51,3.95-24.64,20.84-23.69,37.22l-5.06,2.06c-3.55-5.28-8.48-10.11-10.38-15.93-5.41-16.55-14-34.52,11.85-44.75Z" transform="translate(0 0.1)"/><text class="cls-1" transform="translate(0 400.88)">BEAR<tspan class="cls-2"><tspan x="0" y="341.86">GRE</tspan><tspan class="cls-3" x="545.66" y="341.86">A</tspan><tspan x="733.36" y="341.86">SE</tspan></tspan></text></svg>